<svg width="40" height="40" xmlns="http://www.w3.org/2000/svg">
 <!-- Created with Method Draw - http://github.com/duopixel/Method-Draw/ -->
 <g>
  <title>background</title>
  <rect fill="#024422" id="canvas_background" height="42" width="42" y="-1" x="-1"/>
  <g display="none" overflow="visible" y="0" x="0" height="100%" width="100%" id="canvasGrid">
   <rect fill="url(#gridpattern)" stroke-width="0" y="0" x="0" height="100%" width="100%"/>
  </g>
 </g>
 <g>
  <title>Layer 1</title>
  <path stroke="#000" d="m56.999992,190.04566c3.238095,0 9.848111,2.199872 25.904763,0c31.546317,-4.322095 75.336583,-29.44001 121.428575,-61.723553c44.583646,-31.227087 80.952383,-60.009009 106.857146,-73.725354l11.333334,-3.429086l4.857143,-1.714543l1.619048,0" id="svg_2" stroke-width="1.5" fill="#CFCA6D"/>
  <path stroke="#000" d="m269,26.453125c0.956477,5.259574 5.552592,14.012547 13.390682,40.761702c10.62585,36.262992 25.341525,98.294135 27.737841,148.582977c2.000712,41.98661 4.692279,71.602233 0.956477,93.357446c-2.456913,14.307694 -10.52125,21.038298 -14.347159,23.668085l-1.912955,1.314894l-1.912955,1.314894l0.956477,0" id="svg_3" stroke-width="1.5" fill="#7AD6CA"/>
  <path stroke="#000" d="m278,72.453125c-1.054054,0 -2.380065,3.077392 -4.216216,8.476596c-2.482244,7.299093 -2.429715,22.545965 -5.27027,28.608511c-4.237077,9.043165 -6.108965,17.049762 -9.486486,24.370213c-2.97503,6.448068 -6.6353,13.144085 -9.486486,21.19149c-2.151148,6.071551 -2.921793,14.960718 -6.324324,21.19149c-2.957579,5.415962 -7.102754,22.352954 -12.648648,37.085107c-4.017938,10.673318 -9.69382,18.959505 -14.756756,28.608511c-4.398411,8.382531 -10.083421,13.249402 -13.702702,18.012766c-5.158264,6.788837 -10.200477,13.07618 -16.864864,19.072341c-5.029048,4.524792 -9.948133,9.13398 -16.864864,14.834043c-5.878093,4.844106 -9.588496,8.59045 -15.81081,12.714894c-4.738772,3.141085 -9.400375,5.416706 -13.702702,8.476596c-3.102456,2.20652 -3.569949,3.091417 -6.324324,4.238298c-2.921455,1.216435 -6.324324,1.059574 -8.432432,2.119149l-1.054054,0l-1.054054,0" id="svg_5" stroke-opacity="null" stroke-width="1.5" fill="#FFAAB8"/>
  <path stroke="#FFFF91" d="m0.914659,23.713791c0.195993,0 0.605116,-0.151411 1.567943,-0.572131c1.599168,-0.698779 2.847008,-1.861549 5.291804,-3.242081c2.653348,-1.498298 5.46949,-2.889998 8.035705,-4.386348c2.335576,-1.361863 5.968933,-3.236982 7.251731,-3.814214c1.295078,-0.582757 2.367287,-0.722765 2.939894,-0.953554c0.404894,-0.163192 0.933136,-0.460738 1.56794,-0.762843c0.556762,-0.264965 1.19133,-0.341344 1.763937,-0.572132c0.404894,-0.163192 0.979963,-0.572131 1.567943,-0.762842c0.587977,-0.190711 0.942528,-0.442723 1.56794,-0.762843c0.934102,-0.478123 2.755818,-0.694321 4.115848,-0.953554c1.586056,-0.302316 2.155923,-0.762843 2.547908,-0.953554l0.195991,-0.190711" id="svg_6" stroke-width="1.5" fill="none"/>
  <path stroke="#FFAFCC" d="m23.597557,4.567474c0.12195,0 0.11268,0.262628 0.243902,0.514995c0.684368,1.316183 0.836439,1.679026 1.341461,3.476215c0.471767,1.678848 1.138943,3.199236 1.829266,4.89245c0.519283,1.27369 0.996822,2.854202 1.219511,3.733713c0.169594,0.669814 0.403687,1.420621 0.487804,2.317475c0.122547,1.306595 0.126696,2.584951 0.243902,3.347467c0.123547,0.803765 0.243902,1.93123 0.243902,3.476215c0,0.90124 0.097672,1.810793 0,2.446225c-0.123547,0.803765 -0.309921,1.377955 -0.487804,1.80248c-0.203417,0.485465 0.134502,0.720659 -0.121952,1.15874c-0.143362,0.244894 -0.360386,0.328199 -0.487804,0.772492c-0.070679,0.246449 -0.196419,0.921747 -0.365852,1.287487c-0.193182,0.417006 -0.243902,0.514995 -0.365854,0.90124c-0.12195,0.386245 -0.328337,0.567902 -0.731705,1.15874c-0.159445,0.233549 -0.140165,0.318558 -0.243902,0.386245c-0.231964,0.151351 -0.157671,0.552703 -0.243902,0.643741c-0.086233,0.091038 -0.243902,-0.128746 -0.487804,-0.386245l-0.121952,-0.257495" id="svg_7" fill-opacity="null" stroke-width="1.5" fill="none"/>
  <path d="m25.060968,12.982098c-0.12195,0.121951 -0.648178,0.700217 -1.341461,1.585363c-0.64687,0.825889 -1.437449,1.650854 -2.19512,3.048777c-0.702154,1.295492 -1.290205,2.945957 -1.585363,3.658531c-0.417418,1.007734 -0.757324,1.445213 -1.097559,1.951218c-0.39678,0.590099 -0.764296,1.062086 -1.829266,2.073168c-0.566299,0.537643 -1.25342,1.187105 -1.951218,1.951218c-0.642285,0.703323 -1.147671,1.425898 -1.707314,1.829266c-0.221218,0.159445 -0.530023,0.451885 -0.731707,0.731707c-0.159445,0.221218 -0.243901,0.365852 -0.365853,0.487804c-0.121951,0.12195 -0.15767,0.279621 -0.243902,0.365852c-0.086232,0.086233 -0.157669,0.279621 -0.243902,0.365854c-0.086232,0.086231 -0.157669,0.035719 -0.243901,0.12195c-0.086232,0.086233 -0.299853,0.084566 -0.365853,0.243902c-0.046669,0.112669 -0.243902,0.365854 -0.487804,0.487804c-0.243902,0.12195 -0.421805,0.206518 -0.487804,0.365854c-0.046667,0.112667 -0.084565,0.177898 -0.243902,0.2439c-0.112668,0.046669 -0.243902,0.121952 -0.243902,0.243904l-0.121951,0" id="svg_8" stroke-width="1.5" stroke="#A4FFFF" fill="none"/>
 </g>
</svg>